<?xml version="1.0" standalone="no"?>
<!DOCTYPE svg PUBLIC "-//W3C//DTD SVG 20010904//EN"
 "http://www.w3.org/TR/2001/REC-SVG-20010904/DTD/svg10.dtd">
<svg version="1.0" xmlns="http://www.w3.org/2000/svg"
 width="640.000000pt" height="640.000000pt" viewBox="0 0 640.000000 640.000000"
 preserveAspectRatio="xMidYMid meet">
<metadata>
Created by potrace 1.14, written by Peter Selinger 2001-2017
</metadata>
<g transform="translate(0.000000,640.000000) scale(0.100000,-0.100000)"
fill="#000000" stroke="none">
<path d="M0 3200 l0 -3200 2890 0 c2241 0 2890 3 2890 12 0 9 3 9 12 0 18 -18
56 -15 61 6 4 16 5 16 6 0 1 -17 21 -18 271 -18 l270 0 0 3200 0 3200 -3200 0
-3200 0 0 -3200z m4670 2059 c62 -11 70 -15 70 -35 0 -17 -7 -24 -27 -27 -23
-3 -21 -4 9 -6 26 -1 41 -7 48 -21 6 -12 21 -20 36 -20 14 0 40 -7 57 -16 58
-31 67 -34 82 -34 8 0 15 -4 15 -10 0 -14 37 -13 42 1 3 10 106 -43 118 -61 3
-4 23 -17 46 -28 87 -44 199 -187 172 -219 -5 -7 -7 -16 -4 -21 3 -6 -11 -13
-31 -17 -28 -5 -38 -3 -45 9 -11 19 -48 21 -70 4 -15 -13 -21 -31 -37 -116 -4
-24 -13 -48 -19 -54 -7 -7 -12 -24 -12 -38 0 -32 -54 -120 -74 -120 -25 0 -85
-34 -86 -48 0 -8 -7 -11 -18 -8 -9 3 -32 2 -50 -3 -20 -6 -34 -6 -38 0 -4 6
-11 6 -20 -2 -11 -9 -16 -6 -24 16 -5 14 -10 30 -10 35 0 12 -28 20 -45 14 -8
-4 -15 -12 -15 -20 0 -8 -9 -14 -20 -14 -12 0 -20 -7 -20 -16 0 -8 -13 -28
-29 -44 -16 -16 -26 -31 -24 -34 7 -7 -58 -35 -107 -45 -25 -6 -56 -13 -70
-16 -19 -5 -32 1 -57 26 -18 17 -33 38 -33 45 0 8 -3 14 -8 14 -40 0 -48 232
-12 341 12 35 26 68 31 73 5 6 9 19 9 31 0 12 4 25 9 31 5 5 11 29 14 54 2 25
12 72 22 105 9 33 19 68 21 79 6 32 34 66 53 66 10 0 30 9 45 21 22 17 32 19
55 11 19 -7 40 -6 65 1 48 16 46 30 -4 22 -26 -4 -40 -3 -40 4 0 6 -18 11 -40
11 -22 0 -40 -5 -40 -11 0 -6 -12 -9 -27 -7 -26 3 -28 7 -31 51 -2 45 -1 48
18 42 13 -4 22 -1 26 8 6 15 19 15 124 -4z m-2180 -413 c102 -5 293 -33 360
-52 57 -16 99 -39 139 -74 13 -11 28 -20 33 -20 4 0 43 -21 86 -47 78 -48 192
-159 192 -187 0 -8 11 -27 24 -43 30 -36 64 -103 82 -162 10 -35 12 -65 5
-126 -5 -44 -10 -122 -11 -174 -1 -62 -7 -105 -17 -127 -14 -29 -15 -40 -3
-89 10 -40 10 -61 2 -77 -10 -22 -11 -22 -11 -2 -1 11 -15 33 -31 49 -27 26
-37 29 -98 29 -48 1 -79 7 -105 21 -40 21 -48 41 -19 48 9 3 -5 5 -33 5 -27 0
-44 -2 -37 -5 10 -4 10 -8 1 -19 -9 -11 -6 -22 15 -52 26 -39 52 -107 36 -97
-12 8 -27 -47 -20 -75 4 -16 12 -24 23 -22 9 2 17 -2 17 -7 0 -6 7 -8 15 -5 8
4 15 2 15 -4 0 -7 13 -6 40 0 35 9 40 14 40 39 0 34 -3 33 45 13 34 -14 39
-14 56 2 10 9 19 24 19 32 0 9 3 13 6 9 20 -20 59 -563 42 -584 -6 -8 -3 -23
9 -45 14 -27 18 -57 18 -169 0 -88 -4 -141 -11 -150 -9 -11 -9 -30 0 -79 16
-82 22 -210 19 -422 -2 -154 -4 -171 -28 -228 -14 -34 -31 -87 -36 -118 -6
-32 -16 -63 -22 -71 -13 -16 -10 -305 3 -353 5 -16 18 -136 29 -266 37 -425
37 -427 65 -486 14 -30 26 -67 26 -82 0 -15 5 -42 12 -61 15 -41 5 -52 -25
-26 -26 23 -57 36 -57 23 0 -5 9 -12 20 -15 22 -7 27 -21 8 -24 -51 -7 -100
-5 -138 7 -56 17 -346 27 -355 12 -3 -5 -18 -10 -32 -10 -14 0 -31 -8 -38 -17
-11 -15 -18 -15 -51 -5 -122 37 -279 35 -341 -5 -18 -12 -29 -13 -60 -3 -21 7
-44 17 -50 23 -12 8 -17 3 -14 -15 0 -3 -14 1 -31 10 -34 17 -172 24 -237 12
-21 -4 -48 -3 -61 2 -29 11 -101 74 -116 102 -26 48 -85 312 -85 381 0 11 -5
23 -12 27 -8 5 -9 8 -1 8 8 0 10 16 8 45 -3 51 -11 68 -25 60 -5 -4 -9 -1 -9
4 0 6 7 11 15 11 17 0 19 9 5 30 -9 13 -12 12 -25 -4 -8 -11 -15 -14 -15 -8 0
7 -6 12 -14 12 -10 0 -17 16 -22 46 -8 55 5 75 36 56 30 -18 50 -15 50 9 0 20
-4 21 -45 17 -52 -6 -61 1 -64 57 -1 22 -9 50 -17 63 -8 12 -12 27 -9 31 3 5
0 11 -5 13 -7 2 -7 21 2 58 6 30 11 57 11 60 -1 3 -4 86 -8 185 -7 181 -9 195
-25 195 -18 0 -30 -72 -29 -171 2 -92 -1 -108 -20 -141 -13 -21 -26 -38 -30
-38 -16 0 -3 -42 21 -68 46 -49 44 -171 -3 -172 -8 -1 -3 -7 11 -15 25 -14 25
-14 -15 -14 -35 0 -110 28 -77 29 20 0 14 25 -13 50 -14 13 -23 30 -20 38 3 8
-3 16 -15 19 -14 4 -17 9 -11 17 13 17 -2 96 -19 96 -4 0 -11 11 -14 25 -5 20
-13 25 -39 26 -30 2 -30 2 -4 6 16 3 27 11 27 20 0 10 -6 14 -19 10 -22 -5
-54 11 -45 24 3 5 1 15 -4 22 -15 19 -24 65 -33 182 -5 61 -11 126 -14 145 -3
19 -6 107 -7 194 -2 116 1 161 10 164 7 2 12 20 12 39 0 31 40 129 59 143 3 3
15 18 25 33 9 16 20 26 24 23 3 -4 0 -12 -6 -18 -7 -7 -12 -22 -12 -34 0 -12
-7 -38 -16 -59 -11 -27 -12 -36 -3 -33 20 7 59 83 61 122 2 20 6 36 10 36 8 0
20 35 24 66 3 29 75 148 119 197 19 21 35 42 35 47 0 10 57 40 75 40 12 0 28
-38 30 -69 0 -8 6 -16 13 -19 6 -2 12 -8 12 -14 0 -6 -7 -7 -16 -4 -14 5 -15
4 -4 -9 11 -13 10 -19 -5 -35 -16 -17 -16 -20 -2 -20 18 0 35 -46 40 -113 2
-27 9 -53 16 -60 6 -6 11 -17 11 -24 0 -20 20 -15 20 5 1 16 1 16 14 0 7 -10
18 -18 23 -18 19 0 65 -28 55 -34 -11 -7 -3 -56 9 -56 5 0 10 10 10 23 l2 22
4 -23 c5 -26 23 -20 23 9 0 10 5 19 10 19 6 0 10 -11 10 -25 0 -14 8 -29 20
-35 11 -6 18 -15 16 -19 -3 -4 1 -17 9 -27 13 -17 14 -17 15 -2 0 9 10 18 23
20 17 2 23 10 25 38 1 19 6 42 9 50 3 8 7 20 7 25 1 6 32 9 75 8 l75 -2 -30
24 c-34 28 -65 35 -44 10 9 -11 9 -15 1 -15 -15 0 -61 45 -61 59 0 6 -7 8 -15
5 -13 -6 -20 6 -16 29 0 4 -6 7 -14 7 -18 0 -19 -9 -4 -47 18 -43 18 -71 3
-77 -8 -3 -19 -17 -24 -31 -15 -39 -41 -22 -38 26 1 31 6 39 21 39 16 0 17 2
4 15 -9 8 -17 20 -19 27 -4 10 -8 10 -22 -1 -9 -8 -14 -21 -11 -32 3 -9 1 -20
-5 -24 -5 -3 -10 -3 -11 2 0 4 -2 33 -5 64 -4 45 -2 58 11 62 8 4 15 18 15 32
0 22 -4 25 -20 20 -24 -8 -25 -1 -3 25 12 14 20 17 30 9 7 -6 10 -16 6 -22 -3
-6 -1 -7 6 -3 6 4 9 12 6 17 -4 5 4 9 17 10 16 1 11 4 -15 11 -21 6 -41 18
-45 27 -3 9 -14 22 -24 29 -10 7 -18 21 -18 30 0 9 -6 28 -13 42 -10 20 -19
24 -42 22 -17 -2 -40 -13 -52 -24 l-22 -20 -36 22 c-19 12 -43 36 -52 53 -26
48 -83 179 -83 190 0 5 -13 37 -29 71 -48 99 -64 168 -58 236 7 79 42 150 84
170 27 13 31 19 25 40 -4 14 -7 45 -7 70 0 30 -5 49 -16 57 -22 16 -32 54 -13
46 9 -3 14 2 14 16 0 22 -19 30 -21 9 0 -7 -7 1 -14 17 l-14 30 -1 -27 c0 -14
9 -54 19 -88 20 -65 18 -95 -6 -86 -7 3 -16 -1 -19 -9 -6 -15 -25 -22 -22 -7
2 11 -12 64 -29 103 -28 67 -1 232 39 242 24 7 23 34 -2 49 -24 15 -25 36 -5
103 25 83 72 166 143 254 37 46 83 105 102 131 55 76 98 104 182 120 28 6 61
19 73 30 12 11 43 23 71 27 27 3 67 14 88 24 31 14 58 16 125 13 47 -3 120 -6
161 -8z m-870 -1130 c0 -3 -4 -8 -10 -11 -5 -3 -10 -1 -10 4 0 6 5 11 10 11 6
0 10 -2 10 -4z m1737 -48 c-3 -8 -6 -5 -6 6 -1 11 2 17 5 13 3 -3 4 -12 1 -19z
m-1752 -2367 c3 -5 -5 -13 -17 -17 -20 -6 -20 -8 -5 -19 16 -12 16 -13 -3 -18
-24 -6 -60 2 -60 14 0 5 7 9 15 9 8 0 15 7 15 15 0 8 -7 15 -16 15 -9 0 -12
-5 -8 -12 4 -7 3 -8 -5 -4 -6 4 -9 12 -6 17 8 12 82 12 90 0z m149 -177 c18
-7 22 -54 5 -54 -6 0 -9 7 -5 15 3 8 1 15 -3 15 -5 0 -11 7 -15 15 -6 17 -4
18 18 9z m33 -130 c-3 -3 -12 -4 -19 -1 -8 3 -5 6 6 6 11 1 17 -2 13 -5z
m2310 -396 c-3 -8 -6 -5 -6 6 -1 11 2 17 5 13 3 -3 4 -12 1 -19z m-123 -33
c-4 -8 -1 -15 5 -15 6 0 11 -4 11 -10 0 -14 -47 -12 -56 2 -4 6 -2 14 4 16 7
2 10 8 6 13 -3 5 4 9 15 9 14 0 19 -5 15 -15z m-107 -37 c-3 -8 -6 -5 -6 6 -1
11 2 17 5 13 3 -3 4 -12 1 -19z m1650 -33 c1 -33 -2 -53 -8 -50 -11 7 -12 105
-1 105 4 0 8 -25 9 -55z m-41 -20 c0 -28 -3 -63 -7 -80 l-7 -30 -2 35 -2 35
-8 -30 c-6 -22 -8 -9 -9 48 -1 70 1 78 17 75 13 -3 17 -14 18 -53z m-344 5 c6
0 8 -3 4 -7 -4 -4 -34 -8 -67 -9 -34 -2 -59 -1 -57 1 8 8 83 23 96 19 8 -2 19
-4 24 -4z m103 0 c-11 -5 -36 -8 -55 -8 -32 0 -33 1 -10 8 14 4 39 8 55 8 25
1 27 -1 10 -8z m-1517 -31 c4 -11 2 -12 -9 -1 -7 6 -24 12 -37 12 -13 0 -21 4
-18 9 9 13 59 -2 64 -20z m1627 11 c3 -5 1 -10 -4 -10 -6 0 -11 5 -11 10 0 6
2 10 4 10 3 0 8 -4 11 -10z m-378 -6 c-3 -3 -12 -4 -19 -1 -8 3 -5 6 6 6 11 1
17 -2 13 -5z m-1290 -10 c-3 -3 -12 -4 -19 -1 -8 3 -5 6 6 6 11 1 17 -2 13 -5z
m1735 -36 c-9 -9 -12 -7 -12 12 0 19 3 21 12 12 9 -9 9 -15 0 -24z m98 7 c0
-7 6 -16 13 -18 7 -4 6 -6 -4 -6 -10 -1 -19 9 -21 24 -3 13 -1 22 3 19 5 -3 9
-11 9 -19z m265 15 c3 -5 1 -10 -4 -10 -6 0 -11 5 -11 10 0 6 2 10 4 10 3 0 8
-4 11 -10z m64 -26 c1 5 7 3 14 -3 8 -6 17 -9 20 -6 4 3 5 2 2 -2 -3 -3 0 -12
6 -19 8 -9 5 -11 -10 -7 -12 3 -21 9 -21 14 0 5 -7 6 -15 3 -11 -5 -15 1 -14
22 0 25 1 26 9 9 5 -11 9 -16 9 -11z m-469 -15 c0 -11 -4 -17 -10 -14 -5 3
-10 13 -10 21 0 8 5 14 10 14 6 0 10 -9 10 -21z m-947 -6 c-7 -2 -19 -2 -25 0
-7 3 -2 5 12 5 14 0 19 -2 13 -5z m1356 -36 c-1 -36 -16 -92 -18 -65 -1 9 -4
24 -8 34 -4 12 -3 15 5 10 9 -5 9 0 2 19 -11 28 -5 49 11 40 5 -4 9 -21 8 -38z
m-95 18 c-6 -16 -24 -21 -24 -7 0 11 11 22 21 22 5 0 6 -7 3 -15z m-1367 -1
c-3 -3 -12 -4 -19 -1 -8 3 -5 6 6 6 11 1 17 -2 13 -5z m-153 -12 c2 -4 -10 -8
-27 -9 -30 -1 -30 -1 -7 7 14 4 26 8 27 9 1 1 4 -3 7 -7z m-784 -16 c0 -3 -4
-8 -10 -11 -5 -3 -10 -1 -10 4 0 6 5 11 10 11 6 0 10 -2 10 -4z m2267 -18 c-3
-8 -6 -5 -6 6 -1 11 2 17 5 13 3 -3 4 -12 1 -19z m-2222 -37 c3 -5 1 -12 -5
-16 -5 -3 -10 1 -10 9 0 18 6 21 15 7z m2460 -239 c-3 -3 -11 0 -18 7 -9 10
-8 11 6 5 10 -3 15 -9 12 -12z"/>
<path d="M2313 4713 c9 -2 23 -2 30 0 6 3 -1 5 -18 5 -16 0 -22 -2 -12 -5z"/>
<path d="M2378 4703 c7 -3 16 -2 19 1 4 3 -2 6 -13 5 -11 0 -14 -3 -6 -6z"/>
<path d="M3150 4502 c0 -5 7 -16 16 -23 14 -12 16 -11 13 5 -4 20 -29 35 -29
18z"/>
<path d="M1746 4431 c-3 -5 1 -11 9 -15 8 -3 15 -1 15 4 0 13 -18 22 -24 11z"/>
<path d="M2705 4345 c78 -45 101 -45 51 0 -29 27 -47 35 -75 35 l-36 -1 60
-34z"/>
<path d="M2849 4321 c11 -7 11 -9 0 -14 -11 -4 -11 -6 -1 -6 7 -1 10 -5 7 -11
-4 -6 7 -10 26 -10 18 0 30 -2 28 -4 -8 -7 -79 -14 -78 -8 3 21 -3 32 -18 32
-15 0 -16 -2 -3 -10 10 -7 11 -10 2 -10 -9 0 -10 -4 0 -19 18 -30 106 -46 165
-32 50 13 63 24 63 54 0 13 -8 17 -32 17 -18 0 -40 5 -48 10 -12 8 -10 10 9
10 13 0 22 3 18 6 -9 10 -59 -5 -52 -16 12 -20 -17 -20 -49 -1 -18 12 -37 21
-42 21 -5 0 -3 -4 5 -9z"/>
<path d="M1580 4245 c1 -22 7 -51 15 -65 14 -23 15 -22 9 30 -8 67 -24 91 -24
35z"/>
<path d="M1882 4129 c-12 -19 -11 -19 8 -9 11 6 18 15 15 21 -8 12 -8 12 -23
-12z"/>
<path d="M1920 4103 c0 -12 101 -127 132 -151 9 -7 24 -19 32 -27 18 -19 33
-19 43 -2 4 8 22 24 39 36 17 13 41 40 53 62 l22 39 -35 0 c-19 0 -38 -4 -41
-10 -9 -15 -76 -12 -109 5 -30 16 -52 11 -26 -5 12 -8 11 -10 -5 -10 -23 0
-61 24 -87 55 -10 11 -17 15 -18 8z"/>
<path d="M3340 4084 c0 -9 7 -14 17 -12 25 5 28 28 4 28 -12 0 -21 -6 -21 -16z"/>
<path d="M1674 4063 c2 -24 25 -52 59 -69 24 -13 27 -13 27 1 0 8 -3 15 -7 15
-13 0 -63 47 -63 59 0 6 -4 11 -9 11 -5 0 -8 -8 -7 -17z"/>
<path d="M3357 4033 c-9 -8 -9 -90 0 -122 5 -21 7 -20 19 15 12 34 12 40 -2
51 -11 8 -14 20 -10 37 6 26 5 31 -7 19z"/>
<path d="M1610 4010 c0 -5 5 -10 10 -10 6 0 10 5 10 10 0 6 -4 10 -10 10 -5 0
-10 -4 -10 -10z"/>
<path d="M1953 3933 c42 -47 49 -58 46 -79 0 -4 5 -10 12 -14 8 -6 6 -13 -9
-26 -16 -14 -18 -20 -9 -27 7 -5 -4 -6 -27 -2 -33 6 -38 4 -28 -7 9 -11 4 -13
-26 -11 -33 2 -31 1 11 -9 26 -5 47 -15 47 -20 0 -6 -8 -7 -17 -3 -56 22 -79
12 -47 -19 8 -9 12 -17 7 -18 -4 0 -12 -2 -18 -3 -5 -2 -14 -3 -19 -4 -6 0 -1
-8 10 -16 18 -15 18 -15 -11 -14 -56 4 -95 -1 -95 -11 0 -5 10 -9 21 -7 12 1
24 -3 26 -9 2 -7 -6 -10 -23 -6 -24 4 -26 2 -22 -16 10 -37 -76 -46 -119 -12
-14 11 -38 20 -53 20 -40 0 -75 -72 -66 -135 4 -25 12 -48 18 -51 7 -4 8 -2 4
5 -8 12 29 71 46 71 11 0 7 -94 -6 -121 -8 -18 19 -53 34 -44 5 3 17 -6 28
-20 11 -14 25 -25 30 -25 6 0 15 -6 19 -14 8 -13 45 -36 59 -36 3 0 4 18 0 40
-8 49 15 100 44 100 11 0 20 -5 20 -11 0 -5 5 -7 11 -3 8 4 8 9 0 17 -18 18
-13 37 9 37 16 0 20 7 20 33 0 18 5 38 12 45 7 7 13 31 14 54 1 24 2 49 3 56
1 16 39 15 72 -2 24 -12 29 -11 54 10 16 13 25 24 21 24 -4 0 3 19 15 43 37
73 39 76 39 88 0 7 -17 9 -47 6 -27 -2 -38 -2 -25 0 21 4 32 23 12 23 -5 0 -7
6 -4 14 10 26 -54 107 -111 142 -25 15 -22 10 18 -33z"/>
<path d="M1780 3901 c-5 -11 -26 -25 -45 -32 -19 -7 -35 -16 -35 -20 0 -3 25
-9 56 -12 31 -3 64 -13 73 -21 10 -9 21 -13 24 -9 4 3 7 -1 7 -10 0 -10 8 -17
20 -17 20 0 20 1 3 28 -27 44 -46 64 -73 75 -24 11 -24 11 14 15 21 2 43 -1
49 -7 13 -13 27 -14 27 -3 0 13 -47 32 -80 32 -19 0 -33 -7 -40 -19z m20 -41
c0 -5 -10 -10 -22 -9 -22 0 -22 1 -3 9 11 5 21 9 23 9 1 1 2 -3 2 -9z"/>
<path d="M1910 3845 c13 -14 20 -25 15 -25 -5 0 -4 -5 3 -12 9 -9 15 -9 25 1
10 10 8 15 -8 27 -17 13 -18 16 -5 24 11 7 6 10 -19 10 l-34 0 23 -25z"/>
<path d="M3040 3840 c0 -5 5 -10 11 -10 5 0 7 5 4 10 -3 6 -8 10 -11 10 -2 0
-4 -4 -4 -10z"/>
<path d="M2935 3800 c28 -12 45 -12 45 0 0 6 -15 10 -32 9 -28 0 -30 -2 -13
-9z"/>
<path d="M2950 3770 c0 -5 -12 -13 -27 -16 -16 -4 -30 -11 -34 -15 -8 -13
-105 -29 -177 -29 -88 0 -346 -72 -360 -100 -1 -3 -19 -4 -39 -2 -28 4 -34 2
-27 -9 5 -8 9 -16 9 -19 5 -35 21 -51 63 -64 26 -7 85 -31 132 -54 47 -22 99
-44 115 -49 46 -15 144 -7 204 17 33 13 71 20 95 18 l40 -3 1 40 c2 62 32 125
61 126 32 2 37 3 52 12 23 15 1 27 -51 28 -38 0 -47 3 -32 9 19 8 19 9 1 9
-16 1 -18 6 -12 40 3 22 9 46 12 55 4 11 1 16 -10 16 -9 0 -16 -4 -16 -10z"/>
<path d="M1827 3696 c-3 -8 -2 -18 3 -21 13 -8 24 15 12 27 -6 6 -11 4 -15 -6z"/>
<path d="M2290 3646 c0 -2 9 -6 20 -9 11 -3 18 -1 14 4 -5 9 -34 13 -34 5z"/>
<path d="M3150 3500 c-19 -36 39 -43 62 -7 15 21 14 22 -19 23 -22 0 -37 -5
-43 -16z"/>
<path d="M3101 3500 c0 -8 4 -22 9 -30 12 -18 12 -2 0 25 -6 13 -9 15 -9 5z"/>
<path d="M1927 3400 c3 -12 14 -20 26 -20 19 0 20 1 2 20 -10 11 -21 20 -26
20 -4 0 -5 -9 -2 -20z"/>
<path d="M1581 3335 c-1 -19 26 -45 48 -45 11 0 21 5 21 10 0 6 -9 10 -20 10
-11 0 -20 5 -20 11 0 5 -4 8 -9 5 -5 -4 -12 0 -14 6 -3 7 -6 9 -6 3z"/>
<path d="M3371 3294 c0 -11 3 -14 6 -6 3 7 2 16 -1 19 -3 4 -6 -2 -5 -13z"/>
<path d="M1626 3265 c-3 -8 6 -34 20 -57 14 -24 23 -34 20 -24 -6 16 -4 17 9
6 12 -10 15 -10 15 4 0 9 -7 19 -15 22 -8 4 -15 15 -15 26 0 10 -4 16 -10 13
-6 -3 -7 1 -4 9 3 9 2 16 -4 16 -5 0 -12 -7 -16 -15z"/>
<path d="M3356 3229 c-3 -17 -6 -44 -6 -60 0 -15 -4 -30 -10 -34 -5 -3 -6 -13
-3 -22 9 -24 21 13 29 88 6 63 1 79 -10 28z"/>
<path d="M1938 3223 c7 -3 16 -2 19 1 4 3 -2 6 -13 5 -11 0 -14 -3 -6 -6z"/>
<path d="M2311 3209 c-68 -8 -107 -19 -68 -19 10 0 17 -5 17 -11 0 -6 -7 -8
-16 -5 -10 4 -14 1 -11 -6 2 -7 14 -13 27 -12 l23 1 -21 -18 c-26 -21 -28 -29
-6 -29 10 0 14 -6 11 -14 -4 -9 2 -17 14 -21 21 -7 26 -25 7 -25 -7 0 -4 -6 7
-12 11 -6 22 -14 25 -17 15 -18 63 -41 85 -41 14 0 38 11 53 25 15 14 33 25
41 25 11 0 12 3 4 11 -6 6 -8 23 -3 45 4 19 4 34 -1 34 -4 0 -6 7 -3 15 4 9 0
15 -7 15 -12 0 -12 2 0 9 11 7 9 10 -8 16 -11 3 -21 12 -21 20 0 26 -24 28
-149 14z m122 -6 c-7 -2 -19 -2 -25 0 -7 3 -2 5 12 5 14 0 19 -2 13 -5z m-98
-13 c3 -5 -1 -10 -9 -10 -8 0 -18 5 -21 10 -3 6 1 10 9 10 8 0 18 -4 21 -10z
m50 0 c-3 -5 -12 -7 -20 -3 -21 7 -19 13 6 13 11 0 18 -4 14 -10z"/>
<path d="M2758 3203 c-21 -5 -23 -19 -5 -27 8 -3 7 -8 -5 -16 -20 -13 -24 -30
-6 -30 10 0 78 66 78 76 0 5 -40 3 -62 -3z"/>
<path d="M1940 3142 c0 -9 61 -34 68 -28 4 4 -52 36 -63 36 -3 0 -5 -4 -5 -8z"/>
<path d="M2706 3094 c-15 -14 -25 -28 -22 -31 8 -8 58 28 64 45 6 19 -11 13
-42 -14z"/>
<path d="M1940 3092 c0 -5 18 -20 40 -35 47 -31 53 -20 9 17 -31 26 -49 33
-49 18z"/>
<path d="M2843 3052 c-51 -4 -55 -20 -18 -64 14 -16 25 -36 25 -43 0 -7 8 -16
18 -18 14 -4 13 -5 -4 -6 -23 -1 -54 -30 -54 -51 0 -7 -9 -21 -21 -31 -11 -9
-19 -23 -18 -31 3 -27 -1 -49 -9 -44 -11 7 -44 -33 -37 -44 4 -6 -4 -6 -20 0
-15 6 -29 10 -31 10 -10 0 9 -45 22 -53 23 -13 16 -27 -13 -23 -16 2 -22 1
-15 -1 23 -8 12 -23 -18 -23 -17 0 -33 7 -39 18 -9 15 -12 15 -20 2 -8 -12 0
-19 41 -37 57 -26 62 -27 53 -13 -4 6 6 10 24 10 16 0 33 5 36 10 4 7 68 9
185 6 163 -5 183 -8 235 -31 32 -14 70 -25 85 -25 26 0 29 4 38 48 11 55 5
125 -11 115 -5 -3 -7 -1 -4 4 9 15 -17 74 -42 97 -16 15 -18 21 -9 28 9 5 5 8
-10 8 -15 0 -26 7 -29 20 -3 11 -12 20 -21 20 -8 0 -12 3 -9 6 3 4 2 15 -4 26
-9 16 -6 24 10 42 11 11 18 30 16 41 -2 11 -4 23 -4 27 -1 7 -237 7 -328 0z
m150 -19 c-7 -2 -21 -2 -30 0 -10 3 -4 5 12 5 17 0 24 -2 18 -5z"/>
<path d="M2648 3033 c12 -2 30 -2 40 0 9 3 -1 5 -23 4 -22 0 -30 -2 -17 -4z"/>
<path d="M2589 2988 c-1 -7 -1 -16 0 -20 0 -5 -8 -8 -19 -8 -11 0 -20 -4 -20
-10 0 -5 13 -10 30 -10 30 0 57 30 45 50 -9 14 -35 12 -36 -2z"/>
<path d="M3340 2997 c0 -5 9 -20 20 -34 11 -14 20 -22 20 -17 -1 12 -39 61
-40 51z"/>
<path d="M1952 2960 c7 -10 14 -18 15 -16 6 6 -9 36 -18 36 -5 0 -4 -9 3 -20z"/>
<path d="M2058 2973 c7 -3 16 -2 19 1 4 3 -2 6 -13 5 -11 0 -14 -3 -6 -6z"/>
<path d="M1971 2914 c0 -11 3 -14 6 -6 3 7 2 16 -1 19 -3 4 -6 -2 -5 -13z"/>
<path d="M2575 2920 c-3 -5 -1 -10 4 -10 6 0 11 5 11 10 0 6 -2 10 -4 10 -3 0
-8 -4 -11 -10z"/>
<path d="M3381 2914 c0 -11 3 -14 6 -6 3 7 2 16 -1 19 -3 4 -6 -2 -5 -13z"/>
<path d="M2028 2853 c7 -3 16 -2 19 1 4 3 -2 6 -13 5 -11 0 -14 -3 -6 -6z"/>
<path d="M2235 2850 c3 -5 2 -10 -3 -10 -5 0 -12 -9 -15 -20 -6 -24 17 -27 39
-6 16 17 8 46 -13 46 -8 0 -11 -4 -8 -10z"/>
<path d="M2125 2831 c-3 -6 -3 -15 0 -21 3 -5 -3 -15 -15 -22 -25 -16 -25 -23
1 -49 18 -18 25 -20 40 -11 14 9 21 8 31 -2 14 -13 42 -10 33 4 -3 5 0 14 7
22 22 23 19 38 -8 38 -14 0 -23 -4 -19 -10 3 -5 1 -10 -5 -10 -6 0 -8 -5 -4
-11 4 -7 -2 -9 -17 -7 -20 2 -24 9 -25 40 0 40 -8 56 -19 39z"/>
<path d="M2005 2779 c-4 -11 -4 -23 0 -27 7 -7 25 17 25 36 0 20 -18 14 -25
-9z"/>
<path d="M2144 2679 c19 -15 30 -17 48 -10 13 6 16 10 8 11 -13 0 -13 2 -1 9
10 6 -1 9 -33 9 l-47 0 25 -19z"/>
<path d="M3340 2677 c0 -15 14 -54 30 -87 17 -33 30 -67 31 -77 0 -10 3 -13 6
-6 6 16 -23 116 -48 162 -19 35 -19 35 -19 8z"/>
<path d="M1800 2582 c0 -13 29 -48 30 -35 0 6 3 18 6 27 4 12 0 16 -15 16 -12
0 -21 -4 -21 -8z"/>
<path d="M1616 2523 c-6 -14 -5 -15 5 -6 7 7 10 15 7 18 -3 3 -9 -2 -12 -12z"/>
<path d="M3225 2440 c-8 -14 9 -34 23 -29 7 3 6 11 -3 22 -9 13 -15 15 -20 7z"/>
<path d="M3341 2446 c-1 -5 4 -38 10 -73 8 -46 17 -66 32 -74 17 -10 19 -9 14
7 -13 42 -56 148 -56 140z"/>
<path d="M1354 2403 c1 -21 -2 -44 -8 -51 -6 -8 -5 -17 2 -24 8 -8 13 -4 17
15 11 44 11 90 -1 94 -7 2 -11 -10 -10 -34z"/>
<path d="M1867 2433 c-13 -12 -7 -24 19 -33 37 -14 52 -1 23 21 -26 20 -32 22
-42 12z"/>
<path d="M1956 2424 c-3 -9 -6 -33 -6 -55 0 -28 -4 -39 -15 -39 -22 0 -30 -29
-30 -114 0 -68 -2 -75 -17 -70 -13 4 -18 0 -18 -13 0 -14 -3 -12 -13 7 -13 25
-24 27 -82 16 -11 -2 -23 -4 -27 -5 -5 0 -8 -8 -8 -17 0 -9 6 -14 13 -11 16 6
18 -8 11 -90 -4 -41 -10 -63 -18 -63 -13 0 -15 -34 -4 -46 4 -3 4 -12 1 -20
-3 -8 -1 -14 5 -14 5 0 10 -10 9 -22 0 -13 0 -45 1 -73 0 -27 0 -72 -2 -99 -1
-27 0 -67 4 -88 4 -20 5 -40 2 -42 -4 -5 -6 -86 -2 -103 1 -5 2 -17 1 -28 -2
-17 0 -17 8 -5 9 12 11 12 11 -6 0 -15 6 -20 22 -20 25 1 32 -22 42 -143 4
-42 11 -130 16 -196 6 -66 14 -149 20 -185 5 -36 12 -94 16 -130 6 -66 42
-169 53 -152 4 5 37 6 81 1 41 -4 135 -13 209 -19 74 -7 141 -14 150 -17 11
-3 12 -2 4 4 -8 5 22 8 75 6 47 -2 91 -8 97 -14 7 -7 4 -8 -10 -3 -11 4 -17 4
-13 0 3 -4 18 -9 33 -10 19 -3 23 0 16 7 -20 20 -11 25 57 30 37 4 99 9 137
12 96 9 91 9 171 -12 48 -13 88 -17 125 -13 l54 5 0 35 c-1 63 -40 376 -54
435 -6 22 -19 87 -30 145 -12 58 -25 125 -31 150 -5 25 -11 61 -12 80 -1 19
-5 40 -8 45 -4 6 -10 21 -13 35 -3 14 -13 54 -21 90 -21 91 -21 100 8 100 14
0 36 4 50 10 38 14 55 -18 58 -108 2 -39 6 -72 10 -72 4 0 6 -15 6 -32 0 -18
5 -53 11 -78 10 -43 46 -312 55 -412 3 -25 9 -55 15 -67 6 -11 11 -30 11 -42
0 -20 15 -78 56 -215 19 -64 53 -100 76 -81 22 16 24 35 9 71 -6 16 -13 36
-15 45 -2 9 -6 23 -9 31 -5 13 -14 100 -23 225 -4 53 -22 136 -45 213 -10 34
-19 74 -19 89 0 73 -52 352 -71 378 -4 6 -7 22 -7 36 0 22 4 25 24 21 13 -2
24 0 24 6 0 5 21 12 48 16 56 7 122 43 102 56 -7 4 -9 13 -6 19 4 6 1 11 -6
11 -9 0 -9 3 2 10 9 5 10 10 3 10 -12 0 -9 44 7 94 6 16 10 41 10 55 l-1 26
-13 -25 c-13 -23 -14 -21 -9 22 8 70 -4 138 -25 138 -11 0 -13 3 -5 8 19 12
-8 61 -66 120 -28 28 -55 52 -60 52 -5 0 -13 -18 -19 -39 -9 -39 -9 -40 21
-47 21 -4 26 -9 16 -14 -11 -7 -11 -12 2 -27 23 -27 39 -70 39 -104 0 -27 -2
-29 -15 -15 -8 8 -15 18 -15 23 0 4 -14 16 -30 25 -30 17 -30 17 -20 -2 11
-21 4 -25 -24 -14 -9 3 -16 13 -16 21 0 8 4 12 9 9 5 -3 11 1 15 9 3 8 1 15
-5 15 -6 0 -8 4 -5 9 4 5 -7 15 -24 23 -30 13 -40 28 -19 28 6 0 18 7 26 16
14 13 14 17 2 25 -8 5 -20 7 -26 4 -7 -2 -21 -1 -30 3 -14 5 -12 8 12 13 l30
7 -27 1 c-16 0 -28 5 -28 10 0 13 -71 -7 -90 -25 -12 -12 -13 -16 -1 -23 7 -5
22 -6 33 -3 20 5 38 -12 38 -37 0 -11 -3 -11 -15 -1 -8 7 -12 17 -9 22 9 15
-69 -2 -82 -18 -6 -8 -19 -14 -28 -14 -9 0 -16 -4 -16 -10 0 -5 5 -10 11 -10
7 0 20 -10 30 -22 11 -11 19 -16 19 -10 0 6 -4 14 -10 17 -5 3 -10 11 -10 17
0 6 8 4 18 -4 22 -20 89 -48 96 -41 3 3 19 0 36 -7 27 -11 37 -31 31 -64 -1
-5 2 -12 6 -15 5 -3 14 -17 21 -31 7 -14 10 -17 8 -8 -3 10 -2 19 2 22 12 7
45 -22 37 -33 -3 -6 -1 -11 5 -11 6 0 8 -4 5 -10 -3 -5 0 -7 8 -4 18 6 32 -12
17 -21 -6 -4 -8 -10 -5 -15 9 -14 -87 -31 -150 -26 -39 3 -54 2 -45 -4 13 -8
12 -10 -2 -10 -10 0 -18 -5 -18 -11 0 -17 -78 -6 -129 19 -42 21 -72 22 -41 2
13 -8 12 -10 -2 -10 -12 0 -18 8 -18 24 0 16 -7 26 -22 30 -35 9 -68 7 -68 -4
0 -5 -13 -10 -28 -10 -19 0 -29 5 -29 15 0 8 4 15 9 15 4 0 8 7 8 15 0 22 -28
30 -48 13 -9 -8 -27 -13 -39 -12 -12 0 -20 -2 -17 -7 6 -11 -27 -49 -43 -49
-20 0 -26 21 -8 34 9 6 18 23 19 37 2 20 -3 28 -26 37 -16 6 -28 6 -28 1 0 -5
-5 -9 -11 -9 -7 0 -9 10 -5 24 3 14 1 28 -4 31 -6 4 -8 11 -5 16 4 5 3 15 -2
22 -4 6 -8 18 -9 26 -3 15 16 61 25 61 3 0 6 16 6 35 0 19 -4 35 -8 35 -5 0
-5 5 -2 11 4 6 -2 5 -14 -3 -24 -15 -27 -24 -8 -31 7 -3 5 -6 -5 -6 -11 -1
-15 -6 -12 -16 5 -12 0 -14 -24 -9 -28 6 -29 4 -25 -20 4 -20 1 -26 -12 -26
-12 0 -15 -5 -11 -16 5 -12 2 -15 -10 -10 -13 5 -15 1 -10 -20 5 -19 4 -24 -6
-18 -7 5 -21 7 -30 6 -14 -3 -18 4 -19 30 -1 52 -6 69 -26 85 -10 8 -13 12 -8
9 6 -2 17 -1 25 5 11 6 7 9 -15 10 -25 0 -27 2 -10 8 11 5 24 6 29 3 5 -3 6 0
3 5 -9 14 -59 26 -66 16 -3 -4 -21 -13 -38 -20 -27 -9 -33 -9 -33 3 0 19 -47
37 -83 31 -31 -4 -33 -1 -42 58 -6 45 -39 85 -49 59z m234 -164 c-19 -13 -30
-13 -30 0 0 6 10 10 23 10 18 0 19 -2 7 -10z m807 4 c-3 -3 -12 -4 -19 -1 -8
3 -5 6 6 6 11 1 17 -2 13 -5z m260 -60 c-3 -3 -12 -4 -19 -1 -8 3 -5 6 6 6 11
1 17 -2 13 -5z m17 -29 c3 -9 0 -15 -9 -15 -9 0 -12 6 -9 15 4 8 7 15 9 15 2
0 5 -7 9 -15z m-69 -175 c3 -5 1 -10 -4 -10 -6 0 -11 5 -11 10 0 6 2 10 4 10
3 0 8 -4 11 -10z m-517 -77 c-10 -2 -26 -2 -35 0 -10 3 -2 5 17 5 19 0 27 -2
18 -5z m79 1 c-3 -3 -12 -4 -19 -1 -8 3 -5 6 6 6 11 1 17 -2 13 -5z m-80 -30
c-3 -3 -12 -4 -19 -1 -8 3 -5 6 6 6 11 1 17 -2 13 -5z m466 -1 c-7 -2 -19 -2
-25 0 -7 3 -2 5 12 5 14 0 19 -2 13 -5z m77 -101 c0 -9 -6 -12 -16 -8 -9 3
-18 6 -20 6 -2 0 -4 12 -4 27 0 25 0 26 20 8 11 -10 20 -25 20 -33z"/>
<path d="M2270 2385 c14 -7 24 -17 22 -22 -2 -4 5 -17 16 -28 10 -11 25 -35
33 -52 8 -18 17 -33 21 -33 12 0 21 22 12 29 -11 8 -53 80 -61 104 -4 11 -15
17 -37 17 l-31 -1 25 -14z"/>
<path d="M3248 2378 c-22 -18 -6 -58 22 -58 12 0 18 -4 15 -10 -3 -5 -4 -10
-1 -10 13 0 26 42 20 65 -7 27 -30 33 -56 13z"/>
<path d="M2250 2371 c0 -5 5 -13 10 -16 6 -3 10 -2 10 4 0 5 -4 13 -10 16 -5
3 -10 2 -10 -4z"/>
<path d="M3288 2284 c-4 -3 0 -13 8 -21 19 -20 28 -12 11 11 -7 9 -16 14 -19
10z"/>
<path d="M2482 2198 c5 -15 28 -23 28 -10 0 5 -7 13 -16 16 -10 4 -14 1 -12
-6z"/>
<path d="M2700 2200 c-23 -7 -23 -8 -3 -9 12 -1 25 4 28 9 3 6 5 10 3 9 -2 -1
-14 -5 -28 -9z"/>
<path d="M2690 2150 c0 -5 14 -10 32 -10 36 0 35 4 -4 14 -17 4 -28 2 -28 -4z"/>
<path d="M1578 2126 c-9 -7 -18 -25 -20 -42 -2 -24 1 -30 20 -32 30 -4 52 14
52 44 0 30 -29 47 -52 30z"/>
<path d="M2813 2033 c-7 -2 -13 -13 -13 -24 0 -15 -5 -18 -23 -14 -15 4 -28 1
-36 -9 -11 -13 -11 -16 2 -16 9 0 19 5 22 10 4 7 12 7 18 2 7 -4 26 -5 42 -1
17 3 22 7 12 8 -14 1 -16 5 -7 20 16 31 12 36 -17 24z"/>
<path d="M1730 2010 c0 -5 5 -10 10 -10 6 0 10 5 10 10 0 6 -4 10 -10 10 -5 0
-10 -4 -10 -10z"/>
<path d="M3390 2005 c0 -8 2 -15 4 -15 2 0 6 7 10 15 3 8 1 15 -4 15 -6 0 -10
-7 -10 -15z"/>
<path d="M3138 1943 c7 -3 16 -2 19 1 4 3 -2 6 -13 5 -11 0 -14 -3 -6 -6z"/>
<path d="M3068 1933 c7 -3 16 -2 19 1 4 3 -2 6 -13 5 -11 0 -14 -3 -6 -6z"/>
<path d="M2915 1910 c-3 -5 1 -10 10 -10 9 0 13 5 10 10 -3 6 -8 10 -10 10 -2
0 -7 -4 -10 -10z"/>
<path d="M1373 1743 c-18 -7 -16 -23 2 -23 8 0 15 7 15 15 0 8 -1 15 -2 14 -2
0 -9 -3 -15 -6z"/>
<path d="M3037 1473 c-4 -3 -7 -11 -7 -17 0 -6 5 -5 12 2 6 6 9 14 7 17 -3 3
-9 2 -12 -2z"/>
<path d="M1763 1215 c0 -18 27 -29 41 -15 7 7 5 10 -8 10 -9 0 -14 5 -11 10 3
6 0 10 -8 10 -7 0 -14 -7 -14 -15z"/>
<path d="M2700 560 c0 -5 12 -10 28 -9 24 0 25 1 7 9 -27 12 -35 12 -35 0z"/>
<path d="M2433 549 c-11 -5 2 -8 35 -8 28 -1 52 1 52 3 0 8 -69 12 -87 5z"/>
</g>
</svg>
